<svg xmlns="http://www.w3.org/2000/svg" width="250" height="250" fill="none" viewBox="0 0 250 250"><path fill="url(#paint0_linear_301_252)" d="m124.4 242.5c65.24 0 118.3-52.82 118.3-117s-53.05-118-118.3-118c-65.23 0-117 52.82-117 118 0 64.18 51.82 117 117 117z"/><path fill="url(#paint1_linear_301_252)" d="m86.11 52.5-2.19 0.01-2.15 6.89h-3.05l-2.39-6.9h-4.5l-2.39 6.9h-3.59l-2.39-6.9h-4.5l-2.39 6.9h-3.59l-2.39-6.9h-4.19v12.22h41.9v-12.22h-2.19z"/><path fill="url(#paint1_linear_301_252)" d="m200 52.5-2.18 0.01-2.16 6.89h-3.05l-2.39-6.9h-4.49l-2.39 6.9h-3.59l-2.39-6.9h-4.5l-2.39 6.9h-2.55l-2.39-6.9h-3.51v12.22h41.9v-12.22h-3.92z"/><path fill="url(#paint1_linear_301_252)" d="m162 68.01v19.1h41.48v-19.1h-41.48z"/><path fill="url(#paint1_linear_301_252)" d="m46.71 68.01v19.1h41.17v-19.1h-41.17z"/><path fill="url(#paint1_linear_301_252)" d="m153.7 74.06-2.15 7.63h-4.26l-7.3-7.63h-1.02l-2.39 7.63h-3.26l-2.39-7.63h-4.5l-2.39 7.63h-2.72l-2.39-7.63h-4.5l-2.39 7.63h-2.72l-1.77-7.63h-2.05l-2.93 7.63h-3.59l-1.77-7.63h-4.5v13.05h65.19v-13.05h-4.2z"/><path fill="url(#paint1_linear_301_252)" d="m88.61 91.41v4.28h73.4v-4.28h-73.4z"/><path fill="url(#paint1_linear_301_252)" d="m166.2 91.41v96.57h32.89v-96.57h-32.89zm28.86 93.3h-25.87v-89.2h25.87v89.2z"/><path fill="url(#paint1_linear_301_252)" d="m50.09 193.1v3.89h33.83v-3.89h-33.83z"/><path fill="url(#paint1_linear_301_252)" d="m166.5 193.1v3.58h33.1v-3.58h-33.1z"/><path fill="url(#paint1_linear_301_252)" d="m50.09 91.41v96.57h33.83v-96.57h-33.83zm30.52 93.3h-26.85v-89.2h26.85v89.2z"/><path fill="url(#paint1_linear_301_252)" d="m156.4 126.6c-3.63-15.53-16.17-26.58-32.33-26.58h-0.39c-16.16 0-27.51 11.05-30.2 26.58h-5.22v4.28h9.02c1.17-14.67 11.61-22.87 26.4-22.87h0.39c13.65 0 24.97 10.9 25.9 22.87h12v-4.28h-5.57z"/><path fill="url(#paint1_linear_301_252)" d="m147.6 135.2v-3.66c0-12.22-10.44-21.79-23.1-21.79h-0.39c-12.66 0-19.52 9.57-19.52 21.79v3.66h-16.31v4.28h13.32v46.29h-13.32v3.89h13.32v3.45h-13.32v3.89h17.21v-65.97c0-10.26 8.6-17.73 18.82-17.73h0.39c10.22 0 18.89 8.95 18.89 18.24v65.15h18.4v-3.58h-14.39v-3.45h14.39v-3.89h-14.39v-46.29h14.39v-4.28h-14.39z"/><path fill="url(#paint1_linear_301_252)" d="m58.66 114.9 0.06-2.77 1.15-4.89 0.15-0.44 6.24 0.14c2.72 0.08 4.35-2.12 5.85-3.96 1.05-1.3 2.02-1.19 2.33-1.24l0.42 0.48 0.31-1.1 0.84 0.36-0.89 2.25 0.6 0.42-0.6 0.87-0.31-0.25-0.68 1.15 0.57 2.15 0.78 6.72-0.78 2.15-0.93-0.21 0.67-1.68-2.03-3.66-4.3 0.63-1.2 4.92-1.1-0.21 0.67-4.97-3.1-0.26-2.95 5.44-1.1-0.21 1.31-5.6-0.93-1.41-1.05 5.18z"/><path fill="url(#paint1_linear_301_252)" d="m57.83 123.3 0.93-0.26 1.42 0.77 3.04 5.34 5.45-0.26 3.69-5.18 1.61 0.62 0.94-0.62 0.67 0.99-0.57 1.3h-1.88l-2.34 3.1-0.15 4.82 0.93 2.77-1.41 0.1-2.24-3.99-3.1 0.41-0.83 3.58-1.68 0.11-0.26-1.2 1.32-2.96-1.32-6.63-2.34-2.4-1.88-0.41z"/><path fill="url(#paint1_linear_301_252)" d="m58.14 156.8 0.47-5.81 0.31-0.99 0.94-0.73-1.25 0.42-0.31 1.25-0.47 0.52-0.21-1.25 1.15-1.63 1.41-0.41 6.73-0.31 4.72-3.06 2.5-0.73 0.83-0.41 0.31 0.83-1.46 0.93 1.31 0.47-1.05 1.25-2.03 1.55-0.62 5.39 1.92 4.13-1.04 0.47-2.95-4.91-1.73 0.21-0.57 4.49h-1.25l0.42-5.49-4.01-0.31-2.56 6.01-1.25-0.21-0.26-1.67z"/><path fill="url(#paint1_linear_301_252)" d="m58.24 166.1 0.37-0.11 1.1 0.42 3.41 5.28 5.66-0.31 3.41-4.18 1.36-0.89 1.36 0.67 0.31 1.51-1.51 0.42-3.59 3.15 0.31 4.62 0.42 2.05-0.63 0.21-1.41-0.93-0.73-3.77-3.63 0.41-1.73 3.67-1.56-0.26-0.05-1.69 1.15-2.35-1.25-5.89-1.57-1.46-1.2-0.57z"/><path fill="url(#paint1_linear_301_252)" d="m88.3 171.6 4.71-0.73 2.03-2.62 1.87 0.42 1.15 1.68-0.73 0.94-1.61 1.4-0.78 6.37-0.83-0.32-0.73-4.03-2.09 0.16-0.83 3.87-1.62-0.15-0.54-6.99z"/><path fill="url(#paint1_linear_301_252)" d="m88.3 149.7 3.83-1.2 3.11-4.21 2.45 0.31 0.05 2.45-1.04 1.35-0.93-0.63-1.15 3.49 1.36 6.76-1.26 0.2-1.41-4.28-1.2-0.26-0.88 4.54-1.67-0.2 0.36-5.34-1.62-0.21v-2.77z"/><path fill="url(#paint1_linear_301_252)" d="m150.9 169.1 1.15-1.04 1.68 0.21 2.39 3.4 5.45 1.09v6.37l-1.36-0.21-1.41-2.87-2.5 0.21-0.83 2.55-1.57-0.15 1.05-6.57-2.14-2.78-1.91-0.21z"/><path fill="url(#paint1_linear_301_252)" d="m151.2 143.9 2.84 0.72 2.72 4.21 5.26 0.89-0.58 8.32-1.41 0.2-0.83-4.54-2.44 0.26-1.93 4.28-1.78-0.2 1.52-6.03-0.84-3.96-2.94 1.04 0.41-5.19z"/><path fill="url(#paint1_linear_301_252)" d="m173.7 125.2 1.36-1.94 1.36 0.41 3.26 4.71 6.94 0.47 3.04-5.49 1.1-0.52 0.42 0.52-3.05 4.71-0.93 6.52 1.56 2.06-1.04 0.72-2.03-1.4 0.31-3.58-2.84-0.31-3.48 4.88-1.46-0.31 2.13-5.4-3.63-5.54-3.02-0.51z"/><path fill="url(#paint1_linear_301_252)" d="m173.7 102.2 0.93-0.73 0.58 1.3 3.42 1.99 1.26 2.3 8.87 0.21 1.31 0.42 1.1 6.37-0.94 2.45-0.83-0.31 0.42-2.35-1.15-2.62-2.95 0.62-2.03 4.92-1.62-0.21 1.36-5.44-3.75-0.26-2.95 6.12-1.52-0.21 2.19-5.44-1.25-6.06-1.98-0.21-0.47-2.86z"/><path fill="url(#paint1_linear_301_252)" d="m173.7 144.6 1.04-0.93 3.94 1.14 3.31 3.37 7.72 0.73 1.04 2.04 0.11 4.08-1.15 3.19-1.04-0.41 1.04-2.73-2.03-3.45-2.03 0.47-1.88 6.12-1.52-0.2 1.26-5.71-3.83-0.63-3.05 6.54-1.57-0.2 2.19-5.34-0.68-5.38-2.24-0.1-0.63-2.6z"/><path fill="url(#paint1_linear_301_252)" d="m173.7 168.1 1.62-1.51 1.26 0.62 3.1 4.4 6.58-0.21 2.94-5.07 0.93-0.63 0.83 0.42-2.55 3.98-0.52 5.89 0.83 2.2-0.93 0.62-1.68-2.73-3.21-0.15-1.73 2.67-1.88-0.21 1.36-4.49-2.24-3.88-3.09-0.98-1.62-0.94z"/><defs><linearGradient id="paint0_linear_301_252" x1="72.73" x2="165.7" y1="15.23" y2="238.5" gradientUnits="userSpaceOnUse"><stop offset="0" stop-color="#0D69B2"/><stop offset="1" stop-color="#0F2964"/></linearGradient><linearGradient id="paint1_linear_301_252" x1="125.2" x2="125.2" y1="52.5" y2="197" gradientUnits="userSpaceOnUse"><stop offset="0" stop-color="#F7DA7A"/><stop offset="1" stop-color="#B69653"/></linearGradient></defs></svg>